<?xml version="1.0" encoding="UTF-8"?>
<svg width="180" height="180" viewBox="0 0 180 180" fill="none" xmlns="http://www.w3.org/2000/svg">
  <!-- Background with rounded corners for iOS -->
  <rect width="180" height="180" rx="40" fill="#0A0A0B"/>
  
  <!-- Large Cortex Icon -->
  <g transform="translate(90, 90)">
    <path d="M0 -35L25 -20V20L0 35L-25 20V-20L0 -35Z" fill="#0066FF" stroke="#3385FF" stroke-width="2"/>
    <!-- Neural pathways -->
    <circle cx="-15" cy="-15" r="4" fill="#6B46C1"/>
    <circle cx="15" cy="-15" r="4" fill="#6B46C1"/>
    <circle cx="-15" cy="15" r="4" fill="#6B46C1"/>
    <circle cx="15" cy="15" r="4" fill="#6B46C1"/>
    <circle cx="0" cy="0" r="3" fill="#FFB800"/>
    <!-- Connecting lines -->
    <line x1="-15" y1="-15" x2="0" y2="-35" stroke="#8B5CF6" stroke-width="2"/>
    <line x1="15" y1="-15" x2="0" y2="-35" stroke="#8B5CF6" stroke-width="2"/>
    <line x1="-15" y1="15" x2="0" y2="35" stroke="#8B5CF6" stroke-width="2"/>
    <line x1="15" y1="15" x2="0" y2="35" stroke="#8B5CF6" stroke-width="2"/>
    <line x1="-15" y1="-15" x2="0" y2="0" stroke="#8B5CF6" stroke-width="1"/>
    <line x1="15" y1="-15" x2="0" y2="0" stroke="#8B5CF6" stroke-width="1"/>
    <line x1="-15" y1="15" x2="0" y2="0" stroke="#8B5CF6" stroke-width="1"/>
    <line x1="15" y1="15" x2="0" y2="0" stroke="#8B5CF6" stroke-width="1"/>
  </g>
</svg>