<?xml version="1.0" encoding="UTF-8"?>
<svg width="40" height="40" viewBox="0 0 40 40" fill="none" xmlns="http://www.w3.org/2000/svg">
  <!-- Hexagonal Cortex Core -->
  <g id="cortex-icon">
    <path d="M20 8L28 12V24L20 28L12 24V12L20 8Z" fill="#0066FF" stroke="#3385FF" stroke-width="1.5"/>
    <!-- Neural pathways -->
    <circle cx="16" cy="14" r="2" fill="#6B46C1"/>
    <circle cx="24" cy="14" r="2" fill="#6B46C1"/>
    <circle cx="16" cy="26" r="2" fill="#6B46C1"/>
    <circle cx="24" cy="26" r="2" fill="#6B46C1"/>
    <circle cx="20" cy="20" r="1.5" fill="#FFB800"/>
    <!-- Connecting lines -->
    <line x1="16" y1="14" x2="20" y2="8" stroke="#8B5CF6" stroke-width="1"/>
    <line x1="24" y1="14" x2="20" y2="8" stroke="#8B5CF6" stroke-width="1"/>
    <line x1="16" y1="26" x2="20" y2="28" stroke="#8B5CF6" stroke-width="1"/>
    <line x1="24" y1="26" x2="20" y2="28" stroke="#8B5CF6" stroke-width="1"/>
    <line x1="16" y1="14" x2="20" y2="20" stroke="#8B5CF6" stroke-width="0.5"/>
    <line x1="24" y1="14" x2="20" y2="20" stroke="#8B5CF6" stroke-width="0.5"/>
    <line x1="16" y1="26" x2="20" y2="20" stroke="#8B5CF6" stroke-width="0.5"/>
    <line x1="24" y1="26" x2="20" y2="20" stroke="#8B5CF6" stroke-width="0.5"/>
  </g>
</svg>